<svg width="800" height="600" viewBox="0 0 800 600" fill="none" xmlns="http://www.w3.org/2000/svg">
  <rect width="800" height="600" fill="#0a0a0a"/>
  <rect x="50" y="50" width="700" height="500" fill="#111111" stroke="#333333" stroke-width="2"/>
  
  <!-- DevOps Icon -->
  <g transform="translate(400, 250)">
    <circle cx="0" cy="0" r="80" fill="none" stroke="#4a9eff" stroke-width="3" opacity="0.5"/>
    <circle cx="0" cy="0" r="60" fill="none" stroke="#4a9eff" stroke-width="2" opacity="0.7"/>
    <circle cx="0" cy="0" r="40" fill="none" stroke="#4a9eff" stroke-width="1" opacity="0.9"/>
    
    <!-- Server Icon -->
    <rect x="-30" y="-20" width="60" height="40" fill="#333333" stroke="#4a9eff" stroke-width="2"/>
    <circle cx="-15" cy="-5" r="3" fill="#4ade80"/>
    <circle cx="0" cy="-5" r="3" fill="#4ade80"/>
    <circle cx="15" cy="-5" r="3" fill="#fb923c"/>
    <rect x="-25" y="5" width="50" height="2" fill="#4a9eff" opacity="0.5"/>
    <rect x="-25" y="10" width="40" height="2" fill="#4a9eff" opacity="0.3"/>
  </g>
  
  <!-- Code Lines -->
  <rect x="100" y="400" width="200" height="3" fill="#4a9eff" opacity="0.3"/>
  <rect x="100" y="410" width="150" height="3" fill="#4ade80" opacity="0.3"/>
  <rect x="100" y="420" width="180" height="3" fill="#fb923c" opacity="0.3"/>
  <rect x="100" y="430" width="120" height="3" fill="#a855f7" opacity="0.3"/>
  
  <rect x="500" y="400" width="180" height="3" fill="#4a9eff" opacity="0.3"/>
  <rect x="500" y="410" width="200" height="3" fill="#4ade80" opacity="0.3"/>
  <rect x="500" y="420" width="150" height="3" fill="#fb923c" opacity="0.3"/>
  <rect x="500" y="430" width="170" height="3" fill="#a855f7" opacity="0.3"/>
  
  <text x="400" y="500" font-family="monospace" font-size="14" fill="#666666" text-anchor="middle">DevOps Project Screenshot</text>
</svg>